<?xml version="1.0" encoding="UTF-8"?>
<svg version="1.1" xmlns="http://www.w3.org/2000/svg" width="910" height="717">
<path d="M0 0 C300.3 0 600.6 0 910 0 C910 236.61 910 473.22 910 717 C609.7 717 309.4 717 0 717 C0 480.39 0 243.78 0 0 Z " fill="#6C3584" transform="translate(0,0)"/>
<path d="M0 0 C0.33 0 0.66 0 1 0 C1 125.4 1 250.8 1 380 C11.56255638 372.95829575 20.28564933 366.76128086 29 358 C30.27423828 356.72576172 30.27423828 356.72576172 31.57421875 355.42578125 C43.24091983 343.15789751 52.78276348 328.75770771 61 314 C61.59675537 312.93193115 61.59675537 312.93193115 62.20556641 311.84228516 C63.48676258 309.52833389 64.74846452 307.20512368 66 304.875 C66.4228125 304.08826904 66.845625 303.30153809 67.28125 302.4909668 C69.51440968 298.21919 71.44747252 293.96574005 73.10546875 289.4375 C77.02069453 278.82171381 79.98682014 272.09962897 90.41015625 267.140625 C91.13090332 266.81255859 91.85165039 266.48449219 92.59423828 266.14648438 C97.51438342 263.80175111 102.19977745 261.00146783 106.9375 258.3125 C109.10360536 257.10316074 111.27027883 255.89483851 113.4375 254.6875 C122.7898878 249.45105037 132.05113044 244.06148453 141.27832031 238.60791016 C143.01262566 237.58331964 144.74876559 236.56182367 146.48730469 235.54443359 C164.57758972 224.94224783 181.18763285 212.88753299 196 198 C196.82628906 197.17371094 197.65257812 196.34742188 198.50390625 195.49609375 C224.30297589 168.22015429 236.94431227 133.94189643 240 97 C259.22530985 107.25349859 269.13003113 136.62947783 275.3046875 156.18359375 C277.4732391 163.38116454 278.94690076 170.55867893 280 178 C280.18433594 179.03640625 280.36867188 180.0728125 280.55859375 181.140625 C281.18990533 186.66041123 281.1440426 192.13658253 281.125 197.6875 C281.12886719 198.79544922 281.13273437 199.90339844 281.13671875 201.04492188 C281.12913715 207.53097747 280.82546202 213.91424577 280.23144531 220.37231445 C279.95577612 223.50209029 279.83284704 226.6084173 279.8125 229.75 C279.79832031 230.75546875 279.78414063 231.7609375 279.76953125 232.796875 C280.25299414 239.5161898 282.29630512 245.27078086 285.375 251.25 C285.72022705 251.92909424 286.0654541 252.60818848 286.42114258 253.30786133 C291.16570576 262.46347433 296.58915606 271.22814301 302 280 C302.56509277 280.9163623 303.13018555 281.83272461 303.71240234 282.77685547 C305.95641116 286.41130438 308.20235621 290.04447978 310.4597168 293.6706543 C311.4697547 295.29344102 312.47516368 296.91911935 313.47558594 298.54785156 C314.54453474 300.26734576 315.63864856 301.97132997 316.75097656 303.66308594 C317.31010742 304.53481445 317.86923828 305.40654297 318.4453125 306.3046875 C318.95852051 307.08569824 319.47172852 307.86670898 320.00048828 308.67138672 C321 311 321 311 321.0534668 313.61914062 C320 316 320 316 317.2878418 317.52978516 C316.10359619 317.94534668 314.91935059 318.3609082 313.69921875 318.7890625 C313.06643509 319.01902924 312.43365143 319.24899597 311.7816925 319.4859314 C309.75663908 320.2183846 307.72321387 320.92278092 305.6875 321.625 C303.66449929 322.33891524 301.64382069 323.05861091 299.6254425 323.78549194 C297.78780981 324.44477872 295.94419703 325.08732577 294.1003418 325.72900391 C291.2538158 326.89594732 289.20744539 327.87151043 287 330 C286.40272037 333.09775538 286.14675814 335.86131885 286 339 C285.89002686 340.91280762 285.89002686 340.91280762 285.77783203 342.86425781 C285.47456807 348.23541827 285.20592916 353.60830031 284.95043945 358.98193359 C284.50630066 368.22503023 283.80915168 377.29814893 282.48852539 386.46240234 C282.01108209 389.9197504 281.64647516 393.36878923 281.32421875 396.84375 C278.29371005 429.09396762 278.29371005 429.09396762 268.8984375 438.55078125 C265.75220343 440.95253607 262.81436169 441.93698117 259 443 C258.39542969 443.18304688 257.79085938 443.36609375 257.16796875 443.5546875 C247.97401564 445.44317516 238.06523483 443.90589843 229 442 C227.65808594 441.76023437 227.65808594 441.76023437 226.2890625 441.515625 C215.90981232 439.36418379 206.53243784 434.47701824 197 430 C168.22487142 416.12972808 168.22487142 416.12972808 138 406 C137.32549805 405.82484863 136.65099609 405.64969727 135.95605469 405.46923828 C128.1942977 403.66481489 120.42629103 403.60113292 112.5 403.625 C111.79068329 403.62587616 111.08136658 403.62675232 110.35055542 403.62765503 C99.16732383 403.67320694 88.64505988 404.34654248 78 408 C77.2889209 408.24137695 76.5778418 408.48275391 75.84521484 408.73144531 C48.22537569 418.44082941 25.64331174 438.49191391 12.77075195 464.74731445 C10.40728721 469.80511686 8.42744245 474.96805994 6.625 480.25 C6.38620117 480.94577148 6.14740234 481.64154297 5.90136719 482.35839844 C1.68559831 495.44497478 1.69487752 508.50276824 1.68115234 522.09863281 C1.67184117 524.21860633 1.66167075 526.33857623 1.65071106 528.45854187 C1.62353104 534.18284764 1.60829737 539.90712897 1.59528303 545.63148212 C1.57959976 551.62526041 1.55282621 557.61898916 1.5272522 563.61273193 C1.48055616 574.94896472 1.44376774 586.28520692 1.41057932 597.62148643 C1.37229297 610.53327892 1.32289993 623.44502155 1.27259517 636.35677195 C1.16941183 662.90447763 1.08010736 689.45221536 1 716 C5.28334611 715.95506302 9.56536687 715.88445562 13.84790039 715.79248047 C15.29733245 715.76467745 16.74690467 715.74326635 18.1965332 715.72900391 C31.62717698 715.58914993 43.93423609 713.35475396 56.25 707.6875 C56.91418945 707.38682617 57.57837891 707.08615234 58.26269531 706.77636719 C82.26380784 695.64087279 98.83530164 675.63012684 108 651 C111.50122772 640.33219678 112.1456138 630.25834094 112.12597656 619.1015625 C112.12884413 617.14323918 112.13171957 615.18491586 112.13489199 613.22659302 C112.13756071 611.1353331 112.13801668 609.04408133 112.13809967 606.95281982 C112.13924679 602.58130174 112.15213306 598.20986679 112.16766357 593.83837891 C112.17023643 593.09841108 112.17280928 592.35844326 112.1754601 591.59605217 C112.18072578 590.08379103 112.18601126 588.57152996 112.19131613 587.05926895 C112.22634339 576.89301453 112.25297517 566.72686681 112.25048828 556.56054688 C112.2488973 549.68680333 112.26498434 542.81334689 112.30119491 535.93969536 C112.3196045 532.30870937 112.32904126 528.67820257 112.31671906 525.04718018 C112.30310549 520.99720327 112.3282646 516.9483394 112.35644531 512.8984375 C112.34115028 511.10898712 112.34115028 511.10898712 112.32554626 509.28338623 C112.41348966 502.23063962 113.32611243 497.42456718 118 492 C121.68313266 488.49225461 124.54986511 487.71464 129.5 487.5 C134.4207651 487.70030251 137.30010527 488.57082928 141 492 C145.90869928 497.53994224 145.54629682 502.70521705 145.45410156 509.88037109 C145.45468567 511.07118286 145.45526978 512.26199463 145.45587158 513.4888916 C145.45356838 516.74077661 145.43355978 519.991966 145.40557575 523.2437129 C145.38050783 526.64695154 145.37821588 530.05020501 145.37347412 533.45352173 C145.36106007 539.89207571 145.32826008 546.33035682 145.28807616 552.76879084 C145.24330924 560.10127906 145.2213591 567.43378055 145.20129442 574.76637149 C145.15952579 589.84439949 145.08920467 604.92217241 145 620 C146.15384186 619.99555878 147.30768372 619.99111755 148.49649048 619.98654175 C159.46786891 619.9456755 170.43923154 619.91586398 181.41066933 619.89637566 C187.04871462 619.88601916 192.68669759 619.87201217 198.32470703 619.84912109 C203.78422009 619.82709808 209.24367389 619.81537057 214.703228 619.81024551 C216.76720485 619.80660181 218.83117914 619.79949016 220.89513016 619.78853989 C239.38986997 619.69448272 257.66038544 620.88054621 275.9375 623.8125 C277.01902344 623.98499268 278.10054688 624.15748535 279.21484375 624.33520508 C340.39141709 634.35411965 392.98221903 661.72638579 430.953125 711.33203125 C432.74717386 713.79070827 432.74717386 713.79070827 434 715 C437.17765222 715.1070015 440.33383638 715.14778149 443.51219177 715.14717102 C445.02953914 715.15268605 445.02953914 715.15268605 446.57753998 715.1583125 C449.9962784 715.1694 453.41498648 715.17320198 456.83374023 715.17700195 C459.27443031 715.1832636 461.71511943 715.18991013 464.1558075 715.19691467 C471.51042828 715.21619609 478.86504101 715.22675981 486.21967968 715.23564246 C489.69056783 715.24002701 493.16145444 715.24539416 496.63234138 715.25063133 C508.18994931 715.26766331 519.74755628 715.28214711 531.30517483 715.28938007 C534.3078607 715.2912898 537.31054657 715.29321013 540.31323242 715.29516602 C541.05948177 715.29564976 541.80573112 715.2961335 542.57459409 715.2966319 C554.60415277 715.30489296 566.63361072 715.33015387 578.66312563 715.36274669 C591.04144063 715.39600732 603.41970491 715.41384666 615.79806477 715.41702431 C622.73617688 715.4191742 629.67414305 715.42769403 636.61221123 715.45348549 C643.16296771 715.47778075 649.71353489 715.48090059 656.26432991 715.47072411 C658.64806616 715.47023436 661.03181628 715.47638522 663.41551208 715.49028015 C684.33753051 715.60524307 705.07702214 713.55611005 725.25 707.75 C726.30880371 707.45407959 727.36760742 707.15815918 728.45849609 706.85327148 C744.23229866 702.33889545 759.5531867 696.88867669 774.00634766 689.07714844 C776.12440675 687.9327844 778.25541635 686.81479388 780.38671875 685.6953125 C800.72097744 674.85899044 818.33692491 660.82499143 835 645 C835.82757812 644.21496094 836.65515625 643.42992187 837.5078125 642.62109375 C843.15830865 637.11825865 848.11616588 631.1856371 853 625 C853.76957031 624.05898438 854.53914062 623.11796875 855.33203125 622.1484375 C872.81820646 600.28365622 885.82006365 574.86542971 894.28710938 548.22998047 C894.96352431 546.11409896 895.67177136 544.01193274 896.390625 541.91015625 C905.3750648 515.17920754 907.46653969 486.96515385 907.38818359 458.95092773 C907.39226239 456.4541908 907.39761151 453.95745568 907.40411377 451.46072388 C907.41624205 445.45153872 907.41464962 439.44251059 907.40587585 433.43333202 C907.39903321 428.5394846 907.39821055 423.64566856 907.4014473 418.7518177 C907.401907 418.04886646 907.40236669 417.34591522 907.40284032 416.62166243 C907.40379973 415.19256932 907.40477238 413.76347622 907.4057581 412.33438314 C907.41426282 399.01056138 907.40455549 385.68680207 907.388357 372.36299057 C907.37495537 360.98846317 907.37729025 349.6140277 907.39111328 338.23950195 C907.40725173 324.95393098 907.41344238 311.66841438 907.40427649 298.38283497 C907.40332108 296.96001217 907.40237796 295.53718935 907.4014473 294.11436653 C907.40075306 293.0649297 907.40075306 293.0649297 907.40004479 291.99429212 C907.39747976 287.1190952 907.40177134 282.24393346 907.40888596 277.36874199 C907.41829228 270.77991779 907.41137742 264.19123782 907.39420319 257.60242081 C907.3902844 255.2049354 907.39129165 252.80743523 907.39799118 250.40995598 C907.43775124 234.71771232 906.35467977 219.51833423 904 204 C903.8847588 203.23908991 903.76951761 202.47817981 903.65078425 201.69421184 C896.78924503 157.28116758 876.03938323 113.18536464 845.2109375 80.36328125 C843.33166737 78.35452078 841.56753598 76.30334287 839.8125 74.1875 C831.67897805 64.83684769 822.03572858 56.24709851 812 49 C810.96746094 48.23429687 809.93492187 47.46859375 808.87109375 46.6796875 C800.55407281 40.56791934 791.95435515 35.12455165 783 30 C781.87722656 29.34386719 780.75445313 28.68773438 779.59765625 28.01171875 C755.18243817 14.30733875 726.7970504 4.44769617 699 1 C699 0.67 699 0.34 699 0 C768.63 0 838.26 0 910 0 C910 236.61 910 473.22 910 717 C609.7 717 309.4 717 0 717 C0 480.39 0 243.78 0 0 Z " fill="#FDFCFD" transform="translate(0,0)"/>
<path d="M0 0 C51.81872979 11.19347184 101.50606618 39.54732989 134 82 C134.41427246 82.53786133 134.82854492 83.07572266 135.25537109 83.62988281 C137.55190352 86.62787368 139.77986907 89.6567698 141.93549728 92.75775433 C143.86851203 95.50759074 145.8928479 98.04121384 148.1325264 100.54495716 C160.64323552 115.65811645 158.6360695 134.20180903 158.39278746 152.69878662 C158.34050983 157.69167096 158.35853407 162.68439358 158.36761475 167.67747498 C158.37387867 176.30837658 158.33653032 184.93818176 158.26876068 193.5688076 C158.17084544 206.04673318 158.13994392 218.52413367 158.12490478 231.00240175 C158.09870189 251.2518196 158.01900886 271.50065427 157.90527344 291.74975586 C157.79496713 311.40890606 157.71010385 331.06789734 157.65917969 350.72729492 C157.65602701 351.94099737 157.65287432 353.15469982 157.64962611 354.40518113 C157.63396459 360.49453916 157.61880035 366.5838983 157.60388327 372.67325819 C157.47967178 423.11590827 157.2684807 473.55792556 157 524 C156.34 524 155.68 524 155 524 C154.360625 523.195625 153.72125 522.39125 153.0625 521.5625 C149.84977748 517.54895221 145.93751354 514.53300149 141.9296875 511.34375 C140.09567564 509.87654051 138.28397057 508.38048865 136.5078125 506.84375 C128.00399714 499.53205829 118.59242722 493.76549671 109 488 C107.91138672 487.34016113 107.91138672 487.34016113 106.80078125 486.66699219 C86.28359125 474.3509895 63.79305004 466.03411892 41 459 C39.84274414 458.63334229 39.84274414 458.63334229 38.66210938 458.25927734 C-6.83122044 443.94825902 -55.83526897 443.79268456 -103 443 C-103 416.93 -103 390.86 -103 364 C-97.8445823 365.71847257 -93.03206462 367.36351491 -88.07739258 369.44873047 C-61.80990489 380.37062158 -32.75730653 385.50506404 -5.41015625 375.71484375 C8.6950735 369.19775561 18.31957527 357.83609598 23.625 343.4375 C30.28732252 323.61866092 31.49851616 301.10815303 32.57421875 280.33984375 C32.61392288 279.59153793 32.65362701 278.84323212 32.6945343 278.07225037 C32.87364407 274.56787508 33.01806034 271.06721425 33.10473633 267.55932617 C33.15267334 266.33576416 33.20061035 265.11220215 33.25 263.8515625 C33.27578125 262.78760254 33.3015625 261.72364258 33.328125 260.62744141 C34 258 34 258 36.31738281 256.23510742 C37.20264648 255.82752197 38.08791016 255.41993652 39 255 C39.62487305 254.70697998 40.24974609 254.41395996 40.89355469 254.11206055 C41.48040039 253.87269775 42.06724609 253.63333496 42.671875 253.38671875 C59.07948387 246.59386917 59.07948387 246.59386917 70 233 C73.46382729 224.18298507 72.59099563 215.61838952 69 207 C64.57719389 198.26523506 59.18494411 190.07234819 53.93164062 181.82275391 C49.5465702 174.91804719 45.28338078 167.94365474 41.0625 160.9375 C40.43593506 159.90326904 39.80937012 158.86903809 39.16381836 157.8034668 C38.56448486 156.80484619 37.96515137 155.80622559 37.34765625 154.77734375 C36.82179932 153.90327881 36.29594238 153.02921387 35.75415039 152.12866211 C35.17528076 151.09620361 34.59641113 150.06374512 34 149 C33.56807846 148.29358368 33.13615692 147.58716736 32.69114685 146.85934448 C28.7456123 139.90942888 28.38386418 134.21128011 28.65234375 126.328125 C28.66890518 125.12927673 28.68546661 123.93042847 28.70252991 122.69525146 C28.75662939 118.87927995 28.84341446 115.06518056 28.9375 111.25 C29.35424284 93.63778908 29.11386501 77.19283958 25 60 C24.73292236 58.84935059 24.46584473 57.69870117 24.19067383 56.51318359 C23.51578084 53.83131824 22.7643063 51.20104559 21.9375 48.5625 C21.50630859 47.16789551 21.50630859 47.16789551 21.06640625 45.74511719 C16.42353668 31.43759659 9.84810127 17.20199805 1.14453125 4.890625 C0 3 0 3 0 0 Z " fill="#FDFCFD" transform="translate(282,94)"/>
<path d="M0 0 C-1.35024346 3.50151876 -2.87466581 6.83862155 -4.57421875 10.18359375 C-17.13438958 35.30190957 -26.58882919 61.87357984 -25.81640625 90.25 C-25.77450736 92.65751504 -25.73486665 95.06507025 -25.69726562 97.47265625 C-25.63591488 101.22751749 -25.56309018 104.9801621 -25.45141602 108.73388672 C-25.00791852 124.2552748 -25.23960286 135.9192072 -34 149 C-35.16754354 150.96562525 -36.33426793 152.9317374 -37.5 154.8984375 C-38.65977317 156.72834559 -39.82656677 158.55382129 -41 160.375 C-42.29758567 162.42402929 -43.59443279 164.47352643 -44.890625 166.5234375 C-45.55771484 167.57370117 -46.22480469 168.62396484 -46.91210938 169.70605469 C-50.19631001 174.8873497 -53.45558908 180.08365246 -56.68994141 185.29620361 C-57.72385963 186.95798547 -58.76612325 188.61456586 -59.80859375 190.27099609 C-66.7787585 201.5056151 -69.63617111 210.7935294 -68 224 C-65.88929465 232.03495564 -60.9446262 236.77543543 -54 241 C-47.89228128 244.33276675 -41.6333683 247.28411574 -35.2734375 250.10473633 C-34.47083496 250.46086502 -33.66823242 250.81699371 -32.84130859 251.18391418 C-32.23367676 251.4532225 -31.62604492 251.72253082 -31 252 C-30.89453857 253.23226318 -30.78907715 254.46452637 -30.68041992 255.73413086 C-29.57424011 268.61231619 -28.43094664 281.48683571 -27.24346924 294.35778809 C-27.09316317 295.98896124 -26.94369503 297.62021215 -26.79559326 299.25158691 C-24.74493797 321.81221862 -21.47013767 345.88413657 -4 362 C12.19958127 374.36843942 30.19549489 376.18954982 50 375 C50.94270752 374.83717529 51.88541504 374.67435059 52.85668945 374.5065918 C58.27075936 373.63403296 63.73072508 373.6970816 69.20288086 373.64990234 C70.60409171 373.63336219 72.00521885 373.60609665 73.40600586 373.56787109 C81.92137819 373.3375906 89.11338229 373.41205644 96 379 C101.16670206 384.02410243 104.07459764 388.40300766 104.22705078 395.7902832 C104.22673569 397.71047834 104.21552925 399.63069252 104.1953125 401.55078125 C104.1924826 402.56472458 104.18965271 403.57866791 104.18673706 404.62333679 C104.17556625 407.85317927 104.15046711 411.08274171 104.125 414.3125 C104.1149662 416.50585536 104.10584105 418.69921508 104.09765625 420.89257812 C104.07563707 426.26181386 104.04219023 431.63088692 104 437 C102.78497803 437.01401855 102.78497803 437.01401855 101.54541016 437.02832031 C18.31195527 438.21058078 -68.45055026 453.92838183 -130.91479492 513.20483398 C-134.82171248 516.91085624 -134.82171248 516.91085624 -137 518 C-137.20612512 466.29565588 -137.36465053 414.59135338 -137.45958797 362.88667899 C-137.47084395 356.77861866 -137.48249289 350.67055913 -137.49438477 344.5625 C-137.49674556 343.34652614 -137.49910635 342.13055228 -137.50153869 340.87773073 C-137.54067081 321.20430723 -137.61161551 301.53112109 -137.69437516 281.85783827 C-137.77862192 261.6621942 -137.82854656 241.4666742 -137.84679645 221.27086163 C-137.85912845 208.81485642 -137.89803759 196.3595222 -137.9712482 183.9037236 C-138.01892462 175.35532405 -138.03317779 166.80726998 -138.0215124 158.25874722 C-138.01576348 153.33085682 -138.02439998 148.40413652 -138.07284927 143.47645569 C-138.11697709 138.95503484 -138.11865251 134.43555931 -138.08809005 129.91404474 C-138.08431884 128.2878901 -138.09546141 126.66160896 -138.12394864 125.03569949 C-138.33004066 112.53501621 -134.96612297 104.3103828 -128 94 C-127.04399701 92.5596072 -127.04399701 92.5596072 -126.06868082 91.09011555 C-124.52333602 88.81992165 -122.91066985 86.62447673 -121.25 84.4375 C-120.65928711 83.64867432 -120.06857422 82.85984863 -119.45996094 82.04711914 C-107.86712294 66.74475807 -95.11125342 52.89216687 -80 41 C-79.06027344 40.23171875 -78.12054687 39.4634375 -77.15234375 38.671875 C-58.03445688 23.37756551 -25.49713102 0 0 0 Z " fill="#FEFDFD" transform="translate(607,100)"/>
<path d="M0 0 C0.66 0 1.32 0 2 0 C2.11214844 1.6396875 2.11214844 1.6396875 2.2265625 3.3125 C5.66599684 46.19706346 24.49729932 87.83394526 57.4453125 116.09765625 C84.94170527 138.93297959 115.91429908 155.01281058 147.7578125 170.890625 C148.95519529 171.48837233 150.15254245 172.08619104 151.34985352 172.68408203 C154.23288855 174.12341874 157.11627439 175.56204751 160 177 C160.09373115 202.20977443 160.16411962 227.41952248 160.20724869 252.62943649 C160.22781275 264.33667602 160.25581475 276.04380684 160.30175781 287.75097656 C160.341815 297.96324214 160.36747746 308.17542892 160.37635398 318.38777089 C160.38153694 323.78761258 160.39358832 329.187229 160.42292023 334.58699799 C160.45038874 339.68580238 160.45838257 344.78429209 160.45243073 349.88316345 C160.45351709 351.73889638 160.46128142 353.59464158 160.4768219 355.45030975 C160.79106458 394.9645451 145.18907239 430.55120225 118 459 C110.6900369 466 110.6900369 466 108 466 C107.99413376 464.92861786 107.98826752 463.85723572 107.98222351 462.75338745 C107.92474301 452.60346561 107.85185157 442.45375283 107.76428509 432.30404472 C107.71976193 427.08731539 107.68046709 421.87066091 107.65356445 416.65380859 C107.62735002 411.60914749 107.58682253 406.56477732 107.53681374 401.520298 C107.5202667 399.60605646 107.50867738 397.69176473 107.50238609 395.77746201 C107.45211868 381.87442752 107.01668782 368.28242827 100.375 355.6875 C100.02872559 355.01799316 99.68245117 354.34848633 99.32568359 353.65869141 C92.43541363 340.94175019 81.42785074 334.12913902 67.95703125 329.76171875 C60.52409673 327.84702624 53.24908017 327.84802802 45.625 327.875 C44.53960938 327.87113281 43.45421875 327.86726563 42.3359375 327.86328125 C36.92381657 327.86981763 31.67245408 328.08252204 26.30566406 328.75976562 C21.56953539 329.25323774 16.82020643 329.26758773 12.0625 329.3125 C11.04220703 329.34150391 10.02191406 329.37050781 8.97070312 329.40039062 C1.40903901 329.463123 -5.98594533 328.51451396 -11.87939453 323.35449219 C-13.45789149 321.66107364 -14.73393841 319.93703429 -16 318 C-16.37769531 317.42636719 -16.75539063 316.85273438 -17.14453125 316.26171875 C-24.86700378 302.7546226 -24.27526329 284.30529337 -25.5625 269.25 C-25.77202431 266.88404697 -25.98230642 264.51816091 -26.19335938 262.15234375 C-26.29619232 260.98352661 -26.39902527 259.81470947 -26.50497437 258.61047363 C-26.71201721 256.262135 -26.92214426 253.91406618 -27.13540649 251.56628418 C-27.66465494 245.58204579 -28.08126719 239.61872242 -28.31591797 233.61523438 C-28.37351791 232.4279071 -28.43111786 231.24057983 -28.49046326 230.01727295 C-28.59567478 227.76174566 -28.67050927 225.5045242 -28.70985413 223.24688721 C-28.88065915 217.75819941 -28.88065915 217.75819941 -31.65739441 213.26153564 C-33.7217551 211.9217159 -35.72333623 210.92829487 -38 210 C-39.5322522 209.3179248 -39.5322522 209.3179248 -41.09545898 208.62207031 C-42.05266846 208.27756836 -43.00987793 207.93306641 -43.99609375 207.578125 C-45.57487305 206.99998047 -45.57487305 206.99998047 -47.18554688 206.41015625 C-48.25869141 206.02730469 -49.33183594 205.64445313 -50.4375 205.25 C-52.60366998 204.46576271 -54.76908015 203.67942242 -56.93359375 202.890625 C-57.88290771 202.55063477 -58.83222168 202.21064453 -59.81030273 201.86035156 C-62 201 -62 201 -63 200 C-62.78027971 193.50134991 -60.13309521 189.40298607 -56.625 184.0625 C-55.44746072 182.21548904 -54.27320265 180.36638365 -53.1015625 178.515625 C-52.45348633 177.49404297 -51.80541016 176.47246094 -51.13769531 175.41992188 C-47.40864513 169.48926843 -43.84014493 163.46016006 -40.26287842 157.43722534 C-39.02461406 155.35391184 -37.78122793 153.2737169 -36.53759766 151.19360352 C-28.16981358 137.14846912 -22.58954489 126.46014174 -22.98046875 109.84765625 C-23.01068926 107.43555827 -23.03995328 105.02344815 -23.06835938 102.61132812 C-23.12347585 98.86462176 -23.18628733 95.11855345 -23.26733398 91.37231445 C-23.95525024 57.56517738 -16.40191049 29.39065515 0 0 Z " fill="#FDFDFD" transform="translate(635,115)"/>
<path d="M0 0 C113.19 0 226.38 0 343 0 C339.60818064 1.69590968 337.08550874 2.44011593 333.42041016 3.08740234 C295.63675679 9.87897586 258.55087457 27.67593637 229 52 C228.45601562 52.4424707 227.91203125 52.88494141 227.3515625 53.34082031 C214.08872263 64.18181673 201.10673969 76.11124567 191 90 C190.62214355 90.51208008 190.24428711 91.02416016 189.85498047 91.55175781 C183.53209958 100.13406151 177.67565983 108.9792653 172 118 C169.60230251 115.76430909 167.86713177 113.4331353 166.1015625 110.67578125 C150.24959661 86.22063423 131.77767763 64.18019941 108 47 C106.85225242 46.14665608 105.70512638 45.29247561 104.55859375 44.4375 C73.79565419 21.72628681 37.62292014 7.30465828 0 1 C0 0.67 0 0.34 0 0 Z " fill="#FDFCFD" transform="translate(279,0)"/>
<path d="M0 0 C0.99 0.33 1.98 0.66 3 1 C2.83759547 2.02372715 2.67519095 3.0474543 2.50786507 4.10220349 C2.05407075 7.58501425 1.87469198 10.85824963 1.87415886 14.36474419 C1.87155111 15.60625327 1.86894336 16.84776235 1.86625659 18.12689292 C1.8684183 19.49140492 1.87067494 20.85591677 1.87301636 22.22042847 C1.87186347 23.68023534 1.87027482 25.14004193 1.86828911 26.59984791 C1.86411874 30.60282197 1.86617616 34.60577215 1.86927533 38.60874629 C1.87153857 42.92921913 1.86804518 47.24968788 1.86529541 51.57015991 C1.86084842 60.03120082 1.8618095 68.49223286 1.86470805 76.95327412 C1.86696658 83.83089162 1.86727265 90.70850665 1.86618423 97.58612442 C1.866031 98.56505536 1.86587777 99.54398631 1.86571989 100.55258182 C1.86540016 102.54129751 1.86507595 104.53001319 1.8647473 106.51872887 C1.86189557 125.16841222 1.86517458 143.81809066 1.87054767 162.46777321 C1.87501403 178.46533435 1.87424056 194.46288822 1.86962891 210.46044922 C1.86427533 229.04037728 1.86217171 247.62030104 1.86524117 266.20022976 C1.86555972 268.18223453 1.86587409 270.16423929 1.86618423 272.14624405 C1.86633851 273.12140776 1.86649279 274.09657147 1.86665174 275.1012856 C1.86751464 281.96853466 1.86605885 288.83578099 1.86370468 295.70302963 C1.86089774 304.07508526 1.8616638 312.44713152 1.86698543 320.81918608 C1.86961055 325.08961685 1.87064765 329.360032 1.86733627 333.63046265 C1.86434877 337.54245925 1.86600696 341.4544258 1.87131383 345.36641969 C1.87242756 346.77887776 1.87187007 348.19133838 1.86943804 349.6037948 C1.85794775 356.83370431 2.12681439 363.82615338 3 371 C2.5625 374.5625 2.5625 374.5625 2 377 C3.175625 376.2265625 3.175625 376.2265625 4.375 375.4375 C5.24125 374.963125 6.1075 374.48875 7 374 C7.66 374.33 8.32 374.66 9 375 C7.87926138 375.83905565 6.75325453 376.67107831 5.625 377.5 C4.99851562 377.9640625 4.37203125 378.428125 3.7265625 378.90625 C2 380 2 380 0 380 C0 254.6 0 129.2 0 0 Z " fill="#54336B" transform="translate(1,0)"/>
<path d="M0 0 C0.33 0 0.66 0 1 0 C3.06113961 14.57019428 3.27337641 28.93819882 3.22705078 43.63525391 C3.22648549 46.1698964 3.22680552 48.70453922 3.22793579 51.23918152 C3.22838822 56.65897714 3.22279143 62.07871041 3.21146011 67.49849319 C3.19508851 75.33422398 3.1899853 83.16993159 3.18748413 91.00567763 C3.18312514 103.72385048 3.16986523 116.44199743 3.15087891 129.16015625 C3.1324733 141.50227734 3.11833982 153.84439136 3.10986328 166.18652344 C3.10933783 166.94945228 3.10881239 167.71238112 3.10827102 168.49842902 C3.10566062 172.32646386 3.10313328 176.15449876 3.10064721 179.98253369 C3.07997074 211.65504145 3.04464423 243.32751667 3 275 C2.34 275 1.68 275 1 275 C0.1272073 216.62507368 -0.13473549 158.26273925 -0.07202661 99.88178015 C-0.06049646 88.94189242 -0.05526499 78.00200375 -0.05032361 67.06211138 C-0.04009767 44.70806744 -0.02272032 22.35403453 0 0 Z " fill="#8F6299" transform="translate(905,210)"/>
<path d="M0 0 C4.12938023 4.12938023 4.11651409 10.73757737 4.20254517 16.33424377 C4.19073993 18.32391344 4.16767788 20.31353804 4.13525391 22.30297852 C4.12579239 23.39669266 4.11633087 24.4904068 4.10658264 25.61726379 C4.07311194 29.20465573 4.02494021 32.79168704 3.9765625 36.37890625 C3.95037404 38.87710143 3.92510876 41.37530644 3.90072632 43.8735199 C3.84106259 49.75946189 3.77214253 55.64523759 3.69865549 61.53102201 C3.60727112 68.89623268 3.5304056 76.2615833 3.453125 83.62695312 C3.31367386 96.75144674 3.16141845 109.87575911 3 123 C4.62919624 122.99666908 4.62919624 122.99666908 6.29130554 122.99327087 C16.57383948 122.97291686 26.85636929 122.95796913 37.13891888 122.94818783 C42.42408278 122.94298998 47.70923029 122.9359492 52.99438477 122.92456055 C58.10372387 122.91362082 63.21304731 122.90769988 68.32239723 122.90512276 C70.2626247 122.90328835 72.20285141 122.89970661 74.14307213 122.89426994 C84.482813 122.8664739 94.70266874 122.95152041 105 124 C105 124.33 105 124.66 105 125 C70.68 125 36.36 125 1 125 C0.67 83.75 0.34 42.5 0 0 Z " fill="#583E6F" transform="translate(144,495)"/>
<path d="M0 0 C1.86784773 3.13548537 2.14954202 4.93815528 1.63308716 8.52548218 C0.66308672 17.1953515 0.86050308 25.87984064 0.87060547 34.59228516 C0.86924862 36.56270378 0.8674671 38.53312215 0.86529541 40.50354004 C0.8607578 45.8251065 0.86249468 51.14665346 0.8656745 56.46822023 C0.86821355 62.04110038 0.86585659 67.61397891 0.86428833 73.18685913 C0.86247266 82.53261616 0.86485872 91.87836527 0.86962891 101.22412109 C0.8750863 112.04147015 0.87329577 122.8588004 0.8678025 133.67614901 C0.86327317 142.96633237 0.86261945 152.25651005 0.86524117 161.54669416 C0.86680289 167.09490033 0.86700023 172.64309764 0.86370468 178.19130325 C0.86082805 183.39682147 0.86279776 188.60231525 0.86859894 193.80783081 C0.86992698 195.72313776 0.86953168 197.63844675 0.86733627 199.5537529 C0.86462689 202.15619436 0.86800307 204.75855613 0.87301636 207.36099243 C0.87078564 208.12876593 0.86855491 208.89653943 0.86625659 209.6875788 C0.56793129 213.1332605 0.56793129 213.1332605 2 216 C3.39316416 216.06240273 4.78940439 216.05953845 6.18359375 216.02734375 C7.02857422 216.01509766 7.87355469 216.00285156 8.74414062 215.99023438 C10.53588966 215.95515299 12.32756559 215.91610731 14.11914062 215.87304688 C14.96541016 215.86208984 15.81167969 215.85113281 16.68359375 215.83984375 C17.85233032 215.81458618 17.85233032 215.81458618 19.04467773 215.78881836 C21 216 21 216 23 218 C15.08 218 7.16 218 -1 218 C-1.02312511 190.01929493 -1.04098238 162.03859215 -1.05181217 134.05787945 C-1.05697374 121.06665917 -1.06401381 108.07544492 -1.07543945 95.08422852 C-1.08539052 83.76426925 -1.09185444 72.44431436 -1.09408849 61.12435085 C-1.09539488 55.12766626 -1.09847621 49.13099417 -1.10573006 43.13431358 C-1.11249692 37.49474884 -1.11461559 31.85520181 -1.11310768 26.21563339 C-1.11338371 24.14153128 -1.11538489 22.06742861 -1.11920547 19.99333 C-1.12415307 17.16986295 -1.12299429 14.34646349 -1.12025452 11.522995 C-1.12316736 10.69517964 -1.1260802 9.86736428 -1.12908131 9.0144636 C-1.12046668 5.74823981 -1.04039557 3.1211867 0 0 Z " fill="#492D62" transform="translate(2,498)"/>
<path d="M0 0 C1 3 1 3 -0.37109375 6.00390625 C-1.04629571 7.19789793 -1.73608341 8.38371734 -2.4375 9.5625 C-2.98784912 10.50077637 -2.98784912 10.50077637 -3.54931641 11.45800781 C-16.37103107 32.84763184 -35.64108046 46.99332632 -59 55 C-62.5 55.1875 -62.5 55.1875 -65 55 C-62.02685532 53.37828472 -58.97432953 52.28498765 -55.7722168 51.20019531 C-42.97561994 46.76935627 -23.42190791 37.84381582 -17 25 C-16.34 25 -15.68 25 -15 25 C-14.73703125 24.43410156 -14.4740625 23.86820313 -14.203125 23.28515625 C-12.90517585 20.81989569 -11.39453018 18.68576536 -9.75 16.4375 C-6.02310604 11.19484623 -2.96005158 5.70324957 0 0 Z " fill="#53396C" transform="translate(104,658)"/>
<path d="M0 0 C0.66 0.33 1.32 0.66 2 1 C-8.67075499 7.34516035 -19.42058404 13.53572914 -30.24243164 19.61987305 C-31.17821045 20.14621338 -32.11398926 20.67255371 -33.078125 21.21484375 C-34.32190918 21.91275024 -34.32190918 21.91275024 -35.59082031 22.62475586 C-41.21851119 25.75749199 -41.21851119 25.75749199 -46 30 C-44.8583515 25.23745141 -42.48708312 23.63186578 -38.52734375 21.20117188 C-37.81707031 20.78416016 -37.10679688 20.36714844 -36.375 19.9375 C-35.68792969 19.51662109 -35.00085938 19.09574219 -34.29296875 18.66210938 C-21.62969961 11 -21.62969961 11 -18 11 C-18 10.34 -18 9.68 -18 9 C-12 6 -6 3 0 0 Z " fill="#5D3C73" transform="translate(124,247)"/>
<path d="M0 0 C0.66 0.33 1.32 0.66 2 1 C-6.58 9.58 -15.16 18.16 -24 27 C-24.66 26.67 -25.32 26.34 -26 26 C-17.7811599 16.80272655 -9.14979309 8.2700053 0 0 Z " fill="#F1E3F4" transform="translate(524,143)"/>
<path d="M0 0 C0.33 0.99 0.66 1.98 1 3 C-4.61 8.61 -10.22 14.22 -16 20 C-16.99 19.67 -17.98 19.34 -19 19 C-12.73 12.73 -6.46 6.46 0 0 Z " fill="#7B4C88" transform="translate(496,61)"/>
<path d="M0 0 C1.42807068 4.28421204 -0.50324217 6.99051994 -2.3125 10.875 C-2.95501686 12.28879462 -3.59695747 13.70285128 -4.23828125 15.1171875 C-4.54475586 15.78693604 -4.85123047 16.45668457 -5.16699219 17.14672852 C-6.18198079 19.40486991 -7.10576303 21.69162085 -8 24 C-8.66666667 25.66666667 -9.33333333 27.33333333 -10 29 C-10.66 28.67 -11.32 28.34 -12 28 C-9.56639239 17.94108855 -4.75480117 9.12194217 0 0 Z " fill="#7E4F89" transform="translate(603,107)"/>
<path d="M0 0 C1.00325263 2.63047946 1.08845405 3.75713933 0.109375 6.4453125 C-0.33921875 7.32960938 -0.7878125 8.21390625 -1.25 9.125 C-3.45921303 13.68417924 -5.04721731 18.10742835 -6.32421875 23.00390625 C-7 25 -7 25 -9 27 C-8.48192665 21.24362945 -7.32285562 16.55126571 -5.0625 11.25 C-4.66514648 10.28126953 -4.66514648 10.28126953 -4.25976562 9.29296875 C-2.9528563 6.13433431 -1.58379681 3.02987217 0 0 Z " fill="#604678" transform="translate(14,460)"/>
<path d="M0 0 C2.00731821 3.29445356 2.12227604 5.33465149 1.625 9.125 C1.01613365 14.44720823 0.89552273 19.64844192 1 25 C0.67 25 0.34 25 0 25 C-2.40963855 7.22891566 -2.40963855 7.22891566 0 0 Z " fill="#563C70" transform="translate(2,498)"/>
<path d="M0 0 C0.33 0 0.66 0 1 0 C1 1.65 1 3.3 1 5 C1.66 5.33 2.32 5.66 3 6 C2.67 7.98 2.34 9.96 2 12 C3.175625 11.2265625 3.175625 11.2265625 4.375 10.4375 C5.24125 9.963125 6.1075 9.48875 7 9 C7.66 9.33 8.32 9.66 9 10 C7.87926138 10.83905565 6.75325453 11.67107831 5.625 12.5 C4.99851562 12.9640625 4.37203125 13.428125 3.7265625 13.90625 C2 15 2 15 0 15 C0 10.05 0 5.1 0 0 Z " fill="#583B6D" transform="translate(1,365)"/>
<path d="M0 0 C0.99 0.33 1.98 0.66 3 1 C-0.63 4.63 -4.26 8.26 -8 12 C-8.33 11.01 -8.66 10.02 -9 9 C-6.03 6.03 -3.06 3.06 0 0 Z " fill="#51346C" transform="translate(38,430)"/>
<path d="M0 0 C0.33 0 0.66 0 1 0 C1 4.62 1 9.24 1 14 C0.01 14.33 -0.98 14.66 -2 15 C-1.47462276 9.9697924 -0.89405214 4.98114761 0 0 Z " fill="#7F538D" transform="translate(794,488)"/>
<path d="M0 0 C0.66 0 1.32 0 2 0 C0.40907948 4.13639336 -2.60474918 7.23213248 -6 10 C-6.66 10 -7.32 10 -8 10 C-8 9.34 -8 8.68 -8 8 C-7.34 8 -6.68 8 -6 8 C-6 7.34 -6 6.68 -6 6 C-5.34 6 -4.68 6 -4 6 C-4 5.34 -4 4.68 -4 4 C-3.34 4 -2.68 4 -2 4 C-1.34 2.68 -0.68 1.36 0 0 Z " fill="#623C75" transform="translate(197,194)"/>
<path d="M0 0 C1 3 1 3 0.00390625 5.48046875 C-0.47175781 6.37378906 -0.94742188 7.26710938 -1.4375 8.1875 C-1.91058594 9.08855469 -2.38367188 9.98960937 -2.87109375 10.91796875 C-3.24363281 11.60503906 -3.61617188 12.29210937 -4 13 C-5 10 -5 10 -4.00390625 7.51953125 C-3.52824219 6.62621094 -3.05257812 5.73289062 -2.5625 4.8125 C-2.08941406 3.91144531 -1.61632812 3.01039063 -1.12890625 2.08203125 C-0.75636719 1.39496094 -0.38382812 0.70789063 0 0 Z " fill="#583871" transform="translate(76,280)"/>
<path d="M0 0 C3 1 3 1 4.38671875 3.28515625 C4.81597656 4.20167969 5.24523437 5.11820313 5.6875 6.0625 C6.34298828 7.44115234 6.34298828 7.44115234 7.01171875 8.84765625 C7.33785156 9.55792969 7.66398438 10.26820313 8 11 C7.01 11.495 7.01 11.495 6 12 C4.02 8.04 2.04 4.08 0 0 Z " fill="#81538D" transform="translate(654,182)"/>
<path d="M0 0 C0.66 0.33 1.32 0.66 2 1 C0.02 3.31 -1.96 5.62 -4 8 C-4.99 7.67 -5.98 7.34 -7 7 C-4.69 4.69 -2.38 2.38 0 0 Z " fill="#69487C" transform="translate(480,608)"/>
<path d="M0 0 C1.15957207 3.47871621 0.77456651 4.34219645 -0.4375 7.6875 C-0.72496094 8.49574219 -1.01242188 9.30398438 -1.30859375 10.13671875 C-1.65083984 11.05904297 -1.65083984 11.05904297 -2 12 C-2.33 12 -2.66 12 -3 12 C-2.14285714 3.42857143 -2.14285714 3.42857143 0 0 Z " fill="#53376C" transform="translate(8,475)"/>
<path d="M0 0 C0.66 0 1.32 0 2 0 C0.66511872 3.59391114 -0.96022723 6.75490696 -3 10 C-4 7 -4 7 -3.0625 4.8125 C-2.711875 4.214375 -2.36125 3.61625 -2 3 C-1.34 3 -0.68 3 0 3 C0 2.01 0 1.02 0 0 Z " fill="#784E85" transform="translate(591,275)"/>
<path d="M0 0 C3.74281699 2.38179263 6.97727468 4.74475735 10 8 C5.60249328 7.49259538 3.13051078 4.91706686 0 2 C0 1.34 0 0.68 0 0 Z " fill="#844E8C" transform="translate(807,45)"/>
<path d="M0 0 C0.99 0.33 1.98 0.66 3 1 C-0.465 3.97 -0.465 3.97 -4 7 C-2.92598892 4.08482708 -2.22189824 2.22189824 0 0 Z " fill="#5D3675" transform="translate(485,604)"/>
<path d="M0 0 C0.99 0 1.98 0 3 0 C3 0.66 3 1.32 3 2 C5.97 2.495 5.97 2.495 9 3 C8.67 3.66 8.34 4.32 8 5 C2.25 3.125 2.25 3.125 0 2 C0 1.34 0 0.68 0 0 Z " fill="#744B83" transform="translate(610,466)"/>
<path d="M0 0 C0.66 0.66 1.32 1.32 2 2 C1.01 4.31 0.02 6.62 -1 9 C-1.66 9 -2.32 9 -3 9 C-2.44271087 5.65626525 -1.64826111 2.96687001 0 0 Z " fill="#7E4D8B" transform="translate(624,132)"/>
<path d="M0 0 C0.598125 0.20625 1.19625 0.4125 1.8125 0.625 C-3.9375 4.5 -3.9375 4.5 -6.1875 5.625 C-5.875 3.75 -5.875 3.75 -5.1875 1.625 C-2.1875 -0.375 -2.1875 -0.375 0 0 Z " fill="#5D3A71" transform="translate(293.1875,326.375)"/>
<path d="M0 0 C1.32 0.33 2.64 0.66 4 1 C1.69 2.65 -0.62 4.3 -3 6 C-3 5.01 -3 4.02 -3 3 C-2.34 3 -1.68 3 -1 3 C-0.67 2.01 -0.34 1.02 0 0 Z " fill="#68457D" transform="translate(166,220)"/>
</svg>
